<svg xmlns="http://www.w3.org/2000/svg" viewBox="0 0 573.94 150.42"><defs><style>.cls-1{fill:#fff;fill-rule:evenodd;}</style></defs><g id="Слой_2" data-name="Слой 2"><g id="Слой_1-2" data-name="Слой 1"><path class="cls-1" d="M407.6.59,342.26,146.25H362c30.35-68.75,17.72-40.72,55.76-127.34,41.12,93.64,22.53,52.7,56,127.34h19.56L428,.59ZM269.14,146.25H292L244,92.35c41-.38,54.56-51.67,28.82-78C255.91-7.9,194.66,3,170.3.59V146.25h18.1V93.81h35.37ZM235.63,77.59H188.4V16.82c16.37,2,60.07-6.32,71.16,9.37,18,19.8,4.88,53.67-23.93,51.4M0,150.42H17.89V82l71,68.46h22.47v-1.26L37.94,77.59,111.32,6V4.76H88.85l-71,68.45V4.76H0Zm555.84-4.17h18.1V.59h-18.1Z"/></g></g></svg>